<?xml version="1.0" standalone="no"?>
<!DOCTYPE svg PUBLIC "-//W3C//DTD SVG 20010904//EN"
 "http://www.w3.org/TR/2001/REC-SVG-20010904/DTD/svg10.dtd">
<svg version="1.0" xmlns="http://www.w3.org/2000/svg"
 width="1428.000000pt" height="1426.000000pt" viewBox="0 0 1428.000000 1426.000000"
 preserveAspectRatio="xMidYMid meet">

<g transform="translate(0.000000,1426.000000) scale(0.100000,-0.100000)"
fill="#000000" stroke="none">
<path d="M6920 13633 c-779 -29 -1505 -183 -2235 -475 -190 -76 -647 -301
-830 -408 -1777 -1045 -2957 -2856 -3184 -4885 -58 -518 -53 -1080 14 -1595
238 -1830 1261 -3486 2800 -4532 907 -617 1920 -980 3055 -1095 250 -26 949
-25 1200 0 899 92 1700 332 2460 737 979 522 1833 1312 2430 2248 1128 1770
1332 3973 548 5932 -81 203 -252 559 -364 757 -386 687 -902 1305 -1519 1820
-556 464 -1225 849 -1910 1101 -782 287 -1647 426 -2465 395z m780 -78 c1076
-96 2079 -444 2975 -1033 1351 -886 2328 -2256 2720 -3812 187 -744 241 -1543
154 -2315 -165 -1470 -834 -2838 -1900 -3880 -822 -804 -1848 -1377 -2954
-1650 -1201 -297 -2453 -246 -3620 147 -789 265 -1511 680 -2170 1246 -137
118 -444 421 -574 567 -865 969 -1415 2158 -1585 3426 -45 335 -51 442 -51
889 1 453 8 568 60 929 328 2265 1869 4211 4004 5056 678 268 1295 400 2096
449 132 8 681 -4 845 -19z"/>
<path d="M6995 13170 c-3 -5 0 -13 9 -16 21 -8 61 -1 61 11 0 14 -62 19 -70 5z"/>
<path d="M7115 13170 c-3 -5 0 -13 9 -16 21 -8 61 -1 61 11 0 14 -62 19 -70 5z"/>
<path d="M7235 13170 c-3 -5 0 -13 9 -16 21 -8 61 -1 61 11 0 14 -62 19 -70 5z"/>
<path d="M6755 13160 c-3 -5 0 -13 9 -16 21 -8 61 -1 61 11 0 14 -62 19 -70 5z"/>
<path d="M6880 13160 c0 -5 14 -10 30 -10 17 0 30 5 30 10 0 6 -13 10 -30 10
-16 0 -30 -4 -30 -10z"/>
<path d="M7360 13161 c0 -11 59 -20 65 -11 3 4 2 10 -2 14 -10 9 -63 7 -63 -3z"/>
<path d="M7475 13160 c-3 -5 0 -13 9 -16 21 -8 61 -1 61 11 0 14 -62 19 -70 5z"/>
<path d="M6635 13150 c-3 -5 0 -13 9 -16 21 -8 61 -1 61 11 0 14 -62 19 -70 5z"/>
<path d="M7592 13148 c5 -15 67 -18 71 -3 1 6 -15 11 -37 13 -28 3 -37 0 -34
-10z"/>
<path d="M6515 13140 c-8 -12 17 -23 41 -18 10 1 19 9 22 16 5 15 -54 17 -63
2z"/>
<path d="M7712 13138 c3 -7 19 -14 37 -16 24 -3 32 0 29 10 -3 7 -19 14 -37
16 -24 3 -32 0 -29 -10z"/>
<path d="M6407 13134 c-16 -16 -5 -25 26 -22 17 2 31 8 30 13 -3 12 -46 19
-56 9z"/>
<path d="M7832 13128 c5 -15 66 -29 74 -17 6 10 -37 29 -62 29 -9 0 -14 -6
-12 -12z"/>
<path d="M6305 13121 c-39 -8 -33 -27 8 -23 36 3 45 9 31 20 -5 5 -22 6 -39 3z"/>
<path d="M7952 13108 c3 -7 19 -14 37 -16 24 -3 32 0 29 10 -3 7 -19 14 -37
16 -24 3 -32 0 -29 -10z"/>
<path d="M6171 13099 c-15 -6 -21 -13 -15 -19 11 -11 74 1 77 15 3 14 -33 16
-62 4z"/>
<path d="M8074 13098 c-3 -5 -4 -12 -1 -15 10 -9 62 -8 65 2 4 13 -57 25 -64
13z"/>
<path d="M6051 13079 c-15 -6 -21 -13 -15 -19 11 -11 74 1 77 15 3 14 -33 16
-62 4z"/>
<path d="M8194 13078 c-3 -5 -4 -12 -1 -15 10 -9 62 -8 65 2 4 13 -57 25 -64
13z"/>
<path d="M5951 13061 c-28 -7 -41 -31 -17 -31 27 0 67 20 61 30 -7 11 -9 11
-44 1z"/>
<path d="M8312 13048 c3 -7 17 -14 32 -16 20 -3 27 0 24 10 -3 7 -17 14 -32
16 -20 3 -27 0 -24 -10z"/>
<path d="M5811 13027 c-6 -8 -8 -16 -5 -19 9 -9 57 7 62 20 5 17 -43 15 -57
-1z"/>
<path d="M8425 13031 c-8 -13 42 -34 63 -26 19 7 5 22 -29 30 -16 4 -30 2 -34
-4z"/>
<path d="M5721 13011 c-28 -7 -41 -31 -17 -31 27 0 67 20 61 30 -7 11 -9 11
-44 1z"/>
<path d="M8542 12998 c6 -16 60 -30 72 -18 6 6 -1 13 -18 20 -36 13 -59 13
-54 -2z"/>
<path d="M5601 12981 c-28 -7 -41 -31 -17 -31 27 0 67 20 61 30 -7 11 -9 11
-44 1z"/>
<path d="M8662 12968 c5 -15 56 -29 64 -17 3 5 -7 14 -21 19 -35 13 -48 13
-43 -2z"/>
<path d="M7457 12949 c-42 -22 -72 -64 -87 -121 -6 -21 -20 -145 -30 -275
l-20 -238 21 -17 c57 -47 89 -7 89 112 l1 85 22 -26 c49 -58 147 -77 217 -41
102 51 108 206 9 257 l-31 17 33 16 c42 21 59 54 59 113 0 57 -26 94 -84 120
-56 25 -149 24 -199 -2z m163 -79 c12 -12 20 -33 20 -55 0 -48 -29 -75 -81
-75 -39 0 -40 -1 -37 -32 3 -30 7 -33 48 -40 56 -10 82 -35 82 -81 0 -46 -15
-72 -51 -87 -45 -18 -95 -5 -127 33 l-27 32 7 119 c8 125 22 177 53 195 31 18
91 13 113 -9z"/>
<path d="M5493 12952 c-12 -2 -27 -10 -35 -19 -12 -15 -9 -16 22 -9 55 10 67
37 13 28z"/>
<path d="M8082 12940 c-35 -38 -55 -140 -28 -140 23 0 78 51 93 87 25 61 -22
99 -65 53z"/>
<path d="M8776 12941 c-9 -14 38 -35 60 -27 21 8 9 22 -27 31 -16 4 -30 2 -33
-4z"/>
<path d="M5352 12909 c-13 -5 -20 -13 -17 -19 8 -13 55 -2 75 16 12 12 11 14
-10 13 -14 0 -35 -4 -48 -10z"/>
<path d="M8885 12910 c-8 -13 57 -40 70 -29 6 6 6 12 0 18 -16 14 -63 22 -70
11z"/>
<path d="M5265 12883 c-30 -8 -47 -25 -37 -35 12 -12 75 19 67 32 -4 6 -7 9
-8 9 -1 -1 -11 -4 -22 -6z"/>
<path d="M9005 12871 c-6 -11 26 -31 49 -31 22 0 20 17 -3 30 -24 13 -38 13
-46 1z"/>
<path d="M5141 12841 c-28 -8 -40 -31 -16 -31 22 0 55 18 55 30 0 11 -4 11
-39 1z"/>
<path d="M9129 12820 c24 -20 51 -27 51 -12 0 16 -25 32 -49 32 l-26 -1 24
-19z"/>
<path d="M6795 12821 c-55 -3 -106 -10 -112 -14 -18 -12 -16 -54 3 -65 9 -5
36 -7 59 -4 l43 4 6 -98 c8 -128 20 -170 53 -192 39 -25 107 -21 138 8 44 41
26 86 -26 67 -45 -17 -56 2 -64 115 l-7 96 58 7 c79 9 84 11 84 38 0 49 -9 51
-235 38z"/>
<path d="M7117 12818 c-13 -11 -18 -38 -23 -138 -8 -153 3 -202 49 -230 65
-40 146 -14 147 47 0 27 -15 37 -37 24 -11 -6 -24 -6 -35 0 -16 9 -18 26 -18
144 0 108 -3 137 -16 149 -19 19 -44 20 -67 4z"/>
<path d="M8405 12806 c-20 -30 -11 -54 18 -49 33 7 67 -26 74 -71 4 -28 2 -42
-8 -50 -14 -10 -206 -255 -223 -284 -11 -18 21 -52 49 -52 31 0 44 14 126 129
40 57 74 100 76 95 1 -5 7 -64 12 -131 5 -67 15 -132 21 -143 13 -24 77 -29
86 -6 7 18 -45 462 -60 506 -23 71 -137 109 -171 56z"/>
<path d="M5035 12803 c-30 -8 -47 -25 -37 -35 11 -11 72 17 72 32 0 10 -3 11
-35 3z"/>
<path d="M6465 12793 c-193 -24 -265 -80 -265 -203 0 -59 24 -124 56 -152 92
-81 266 -53 321 51 39 75 25 165 -33 209 l-29 21 37 1 c40 0 72 24 64 47 -3 8
-6 16 -6 18 0 17 -50 20 -145 8z m11 -127 c29 -29 34 -41 34 -80 0 -36 -6 -52
-29 -78 -26 -29 -35 -33 -81 -33 -46 0 -55 4 -81 33 -22 24 -29 42 -29 72 0
76 41 119 114 120 30 0 45 -7 72 -34z"/>
<path d="M9230 12790 c0 -13 34 -30 62 -30 l23 1 -24 19 c-24 21 -61 27 -61
10z"/>
<path d="M4911 12753 c-44 -18 -28 -38 17 -21 18 7 32 16 32 20 0 14 -16 15
-49 1z"/>
<path d="M7899 12737 c-123 -83 -126 -293 -5 -351 19 -9 57 -16 85 -16 45 0
56 5 92 37 33 30 41 34 35 17 -16 -51 42 -102 98 -88 28 7 46 31 46 62 0 15
-5 19 -18 15 -10 -2 -24 2 -31 10 -15 19 6 124 43 212 23 55 23 61 8 73 -8 6
-29 12 -44 12 -23 0 -32 -7 -42 -30 l-12 -30 -23 31 c-36 48 -78 69 -142 69
-42 0 -65 -6 -90 -23z m156 -72 c30 -15 45 -35 58 -77 3 -9 -5 -39 -19 -66
-42 -85 -116 -103 -169 -40 -57 67 -6 196 78 198 11 0 34 -7 52 -15z"/>
<path d="M9344 12748 c-7 -11 -8 -10 29 -26 33 -14 54 -7 37 13 -14 16 -59 25
-66 13z"/>
<path d="M5390 12738 c-31 -11 -41 -27 -34 -54 4 -17 0 -24 -16 -29 -34 -11
-99 -74 -121 -116 -38 -75 -17 -202 44 -267 40 -43 97 -66 172 -68 59 -3 71
-6 79 -23 19 -43 101 -11 90 34 -5 20 0 27 33 43 80 42 123 113 123 206 0 143
-96 236 -242 236 -53 0 -68 3 -68 15 0 22 -31 34 -60 23z m199 -145 c13 -11
34 -31 44 -45 25 -33 34 -118 17 -158 -12 -30 -66 -77 -76 -67 -3 2 -22 60
-43 128 -21 68 -41 135 -46 148 -7 23 -6 24 35 18 24 -3 55 -14 69 -24z m-164
-130 c20 -65 40 -130 45 -145 10 -32 -5 -38 -58 -27 -113 24 -153 208 -60 273
12 9 26 16 30 16 4 0 23 -53 43 -117z"/>
<path d="M4789 12700 l-24 -19 26 -1 c14 0 34 9 44 20 18 19 17 20 -2 20 -12
0 -31 -9 -44 -20z"/>
<path d="M5919 12704 c-87 -26 -126 -87 -96 -149 11 -23 25 -35 47 -40 l31 -7
-25 -23 c-48 -44 -44 -110 8 -149 54 -41 208 -17 268 41 36 34 38 80 6 92 -19
7 -29 2 -56 -25 -47 -48 -142 -60 -166 -21 -22 34 13 59 117 81 20 5 27 12 27
30 0 31 -15 36 -78 23 -60 -13 -85 -4 -90 31 -6 42 101 69 163 40 21 -9 29 -9
42 4 21 22 10 62 -22 76 -34 16 -119 14 -176 -4z"/>
<path d="M9450 12700 c0 -13 34 -30 62 -30 l23 1 -24 19 c-24 21 -61 27 -61
10z"/>
<path d="M4685 12654 l-30 -25 30 6 c35 8 57 24 49 36 -8 14 -17 11 -49 -17z"/>
<path d="M9566 12661 c-8 -12 14 -28 49 -36 l30 -6 -30 25 c-32 28 -41 31 -49
17z"/>
<path d="M4575 12605 l-30 -26 35 7 c41 7 55 18 46 33 -10 16 -18 14 -51 -14z"/>
<path d="M9674 12609 c-9 -15 5 -26 46 -33 l35 -7 -30 26 c-33 28 -41 30 -51
14z"/>
<path d="M8930 12406 c-91 -102 -166 -192 -168 -200 -4 -17 35 -46 62 -46 11
0 43 22 71 49 l50 48 88 -35 87 -34 0 -63 c0 -57 3 -66 27 -85 19 -15 35 -19
53 -15 14 4 26 8 28 9 1 2 0 119 -4 261 -7 253 -7 257 -30 272 -13 8 -40 17
-61 20 l-38 4 -165 -185z m190 -32 c0 -108 7 -103 -88 -63 l-44 19 63 70 c34
38 64 70 65 70 2 0 4 -43 4 -96z"/>
<path d="M4478 12564 c-32 -17 -37 -34 -10 -34 27 0 59 27 47 39 -7 6 -19 5
-37 -5z"/>
<path d="M9787 12563 c-13 -12 -7 -23 24 -39 44 -22 60 -3 21 25 -33 23 -36
24 -45 14z"/>
<path d="M4720 12530 c-24 -24 -24 -32 -5 -97 21 -70 39 -83 60 -44 42 83 -1
195 -55 141z"/>
<path d="M4371 12507 c-13 -6 -23 -16 -23 -22 1 -19 20 -15 48 9 31 28 17 35
-25 13z"/>
<path d="M9905 12485 c31 -26 55 -32 55 -15 0 11 -53 40 -72 40 -7 -1 1 -12
17 -25z"/>
<path d="M4253 12444 l-28 -25 35 7 c41 7 55 18 46 33 -11 17 -22 13 -53 -15z"/>
<path d="M9995 12451 c-5 -9 40 -51 56 -51 20 0 17 20 -7 39 -29 23 -40 26
-49 12z"/>
<path d="M4153 12385 c-22 -19 -24 -24 -11 -25 9 0 30 11 45 25 22 19 24 24
11 25 -9 0 -30 -11 -45 -25z"/>
<path d="M10104 12389 c-7 -13 35 -50 50 -46 22 7 15 27 -13 41 -21 12 -32 13
-37 5z"/>
<path d="M9346 12344 c-20 -20 -21 -50 -1 -58 11 -4 15 -23 15 -78 0 -109 -17
-193 -57 -286 -37 -88 -36 -104 12 -122 32 -12 44 -2 81 71 19 38 39 69 45 69
24 0 150 93 198 146 59 64 68 111 29 138 -36 25 -55 20 -68 -20 -12 -36 -98
-131 -138 -153 l-24 -13 9 69 c4 37 8 99 8 137 -1 62 -3 71 -28 92 -33 28 -59
30 -81 8z"/>
<path d="M4050 12330 c-14 -10 -21 -22 -17 -26 9 -9 60 19 65 35 6 17 -21 12
-48 -9z"/>
<path d="M4775 12331 c-52 -23 -101 -80 -115 -132 -21 -79 20 -179 93 -227
131 -87 340 47 311 199 -15 74 -69 146 -127 168 -43 16 -117 13 -162 -8z m148
-89 c52 -47 62 -123 21 -171 -47 -57 -137 -50 -175 13 -23 38 -25 104 -3 135
35 50 115 62 157 23z"/>
<path d="M10205 12331 c-5 -9 40 -51 56 -51 20 0 17 20 -7 39 -29 23 -40 26
-49 12z"/>
<path d="M9895 12284 c-36 -39 -62 -90 -51 -101 12 -12 90 19 118 47 30 30 36
58 16 78 -21 21 -49 13 -83 -24z"/>
<path d="M3946 12269 c-19 -15 -24 -25 -17 -32 8 -8 18 -4 36 13 43 41 28 56
-19 19z"/>
<path d="M10323 12245 c15 -14 36 -25 45 -25 13 1 11 6 -11 25 -15 14 -36 25
-45 25 -13 -1 -11 -6 11 -25z"/>
<path d="M3845 12200 c-21 -21 -24 -30 -13 -30 21 0 70 39 63 51 -10 15 -20
11 -50 -21z"/>
<path d="M4503 12200 c-34 -14 -54 -53 -77 -152 l-21 -92 -36 59 c-29 50 -40
61 -65 63 -20 2 -36 -4 -48 -17 -17 -19 -15 -24 64 -170 45 -84 90 -155 99
-160 20 -11 56 2 69 25 8 14 4 30 -14 66 -24 48 -30 83 -16 91 4 3 45 -10 91
-29 47 -19 97 -34 111 -34 30 0 65 31 58 52 -3 7 -51 31 -109 54 -101 41 -104
43 -101 71 6 47 31 94 52 100 27 7 26 48 -2 67 -25 18 -25 18 -55 6z"/>
<path d="M10428 12178 c23 -23 35 -29 43 -21 7 7 3 16 -17 32 -44 34 -64 26
-26 -11z"/>
<path d="M3746 12139 c-20 -16 -24 -25 -17 -32 8 -8 20 -2 43 21 38 37 18 45
-26 11z"/>
<path d="M9777 12146 c-20 -15 -125 -211 -138 -256 -13 -44 1 -82 41 -111 45
-33 76 -34 105 -5 26 26 29 54 6 48 -19 -4 -51 17 -51 34 0 8 28 68 63 133 60
116 62 119 44 139 -23 25 -52 33 -70 18z"/>
<path d="M10510 12131 c0 -13 41 -41 60 -41 10 1 6 9 -13 25 -29 26 -47 32
-47 16z"/>
<path d="M3652 12074 c-12 -8 -22 -19 -22 -25 0 -17 26 -9 50 16 27 29 9 35
-28 9z"/>
<path d="M10623 12045 c15 -14 36 -25 45 -25 13 1 11 6 -11 25 -15 14 -36 25
-45 25 -13 -1 -11 -6 11 -25z"/>
<path d="M3550 12000 c-14 -10 -21 -22 -17 -27 10 -9 59 17 65 35 6 18 -19 14
-48 -8z"/>
<path d="M10702 11989 c6 -17 56 -44 65 -35 10 9 -33 46 -54 46 -8 0 -13 -5
-11 -11z"/>
<path d="M10007 11967 c-83 -26 -147 -113 -147 -199 0 -89 70 -171 167 -197
154 -42 295 136 224 283 -26 53 -76 93 -139 112 -53 16 -55 16 -105 1z m108
-91 c93 -39 77 -187 -24 -217 -74 -22 -150 42 -138 117 8 45 35 84 72 100 39
17 48 17 90 0z"/>
<path d="M3457 11932 c-18 -20 -22 -42 -9 -42 10 0 52 43 52 53 0 14 -27 7
-43 -11z"/>
<path d="M4034 11925 l-26 -26 28 -47 c66 -114 136 -210 159 -220 72 -33 155
11 155 81 0 14 -7 31 -16 38 -14 11 -18 10 -34 -10 -31 -42 -58 -23 -124 84
-84 138 -96 146 -142 100z"/>
<path d="M10800 11922 c0 -16 49 -54 60 -47 8 5 5 15 -11 31 -22 23 -49 32
-49 16z"/>
<path d="M3362 11857 c-25 -27 -28 -37 -9 -37 14 0 57 41 57 53 0 15 -28 6
-48 -16z"/>
<path d="M3793 11764 c-73 -52 -133 -100 -133 -105 0 -21 21 -49 38 -49 10 0
35 12 57 27 l39 26 18 -24 c96 -132 117 -156 150 -172 36 -18 38 -18 82 1 24
11 49 30 56 42 15 28 9 70 -12 84 -14 9 -21 6 -33 -12 -31 -43 -59 -29 -121
60 l-58 81 24 16 c14 9 38 28 54 42 29 26 30 27 13 53 -10 14 -23 26 -30 26
-6 0 -72 -43 -144 -96z"/>
<path d="M10890 11852 c0 -12 44 -52 58 -52 18 0 14 14 -11 38 -24 22 -47 29
-47 14z"/>
<path d="M3270 11775 c-35 -37 -14 -44 23 -7 22 22 27 32 16 32 -9 0 -26 -11
-39 -25z"/>
<path d="M10357 11762 c-18 -20 -22 -42 -8 -42 26 0 15 -36 -29 -97 -84 -114
-89 -171 -22 -245 114 -127 263 -94 350 77 42 83 27 155 -32 155 -19 0 -25 -9
-39 -60 -13 -46 -28 -72 -65 -110 -58 -60 -85 -64 -132 -20 -41 38 -36 60 31
151 60 81 74 116 60 152 -10 25 -56 57 -84 57 -8 0 -21 -8 -30 -18z"/>
<path d="M10990 11772 c0 -10 43 -52 53 -52 14 0 7 27 -11 43 -20 18 -42 22
-42 9z"/>
<path d="M3176 11701 c-27 -30 -9 -47 20 -20 13 12 24 26 24 31 0 15 -27 8
-44 -11z"/>
<path d="M11080 11692 c0 -10 43 -52 53 -52 14 0 7 27 -11 43 -20 18 -42 22
-42 9z"/>
<path d="M3092 11627 c-25 -27 -28 -37 -9 -37 21 0 52 39 41 50 -7 7 -18 2
-32 -13z"/>
<path d="M11170 11612 c0 -10 43 -52 53 -52 14 0 7 27 -11 43 -20 18 -42 22
-42 9z"/>
<path d="M3491 11525 c-60 -52 -109 -102 -121 -125 -60 -117 23 -267 154 -278
69 -6 113 9 160 55 50 48 68 87 69 142 1 86 -67 171 -137 171 -14 0 -26 2 -26
4 0 3 14 18 31 36 29 28 30 32 16 53 -8 12 -21 23 -30 25 -8 2 -60 -36 -116
-83z m128 -120 c16 -14 35 -41 41 -60 25 -76 -58 -160 -133 -136 -42 14 -75
48 -85 87 -12 43 -4 71 29 104 41 40 103 42 148 5z"/>
<path d="M3002 11547 c-22 -23 -29 -47 -14 -47 18 0 56 50 46 60 -7 7 -18 3
-32 -13z"/>
<path d="M11260 11532 c0 -10 43 -52 53 -52 14 0 7 27 -11 43 -20 18 -42 22
-42 9z"/>
<path d="M2912 11457 c-25 -27 -28 -37 -9 -37 14 0 57 41 57 53 0 15 -28 6
-48 -16z"/>
<path d="M10821 11299 c-86 -89 -160 -170 -165 -180 -7 -15 -4 -25 14 -44 13
-14 31 -25 41 -25 10 0 67 53 128 117 62 65 111 110 111 101 0 -9 -11 -93 -25
-188 -32 -218 -32 -235 0 -256 13 -8 33 -13 43 -10 25 8 332 331 332 349 0 23
-46 59 -67 53 -11 -3 -63 -53 -117 -111 -54 -58 -101 -105 -105 -105 -4 0 5
87 20 193 16 105 29 195 29 199 0 14 -53 68 -68 68 -8 0 -85 -72 -171 -161z"/>
<path d="M11340 11452 c0 -12 44 -52 58 -52 18 0 14 14 -11 38 -24 22 -47 29
-47 14z"/>
<path d="M2832 11377 c-25 -27 -28 -37 -9 -37 16 0 47 32 47 48 0 19 -14 14
-38 -11z"/>
<path d="M11430 11367 c0 -14 41 -57 53 -57 15 0 6 28 -16 48 -27 25 -37 28
-37 9z"/>
<path d="M2747 11292 c-18 -20 -22 -42 -9 -42 10 0 52 43 52 53 0 14 -27 7
-43 -11z"/>
<path d="M11510 11282 c0 -14 49 -56 57 -49 3 4 -4 18 -17 32 -24 25 -40 32
-40 17z"/>
<path d="M2677 11210 c-25 -20 -37 -50 -19 -50 14 0 54 48 50 60 -2 7 -13 4
-31 -10z"/>
<path d="M3137 11212 c-10 -10 -17 -27 -17 -37 0 -23 183 -210 221 -225 42
-18 93 -5 123 31 28 33 32 59 16 90 -14 25 -46 25 -53 -1 -12 -47 -37 -35
-136 64 -100 99 -124 112 -154 78z"/>
<path d="M11590 11192 c0 -10 43 -52 53 -52 14 0 7 27 -11 43 -20 18 -42 22
-42 9z"/>
<path d="M2592 11117 c-22 -23 -29 -47 -14 -47 18 0 56 50 46 60 -7 7 -18 3
-32 -13z"/>
<path d="M2982 11058 c-126 -133 -152 -174 -152 -242 0 -48 16 -85 53 -124 92
-97 213 -94 299 7 71 83 70 177 -1 253 -32 35 -44 41 -90 46 l-52 5 25 26 c14
15 26 34 26 42 0 15 -30 49 -42 49 -3 0 -33 -28 -66 -62z m106 -138 c126 -77
23 -263 -107 -196 -80 42 -81 158 -2 201 36 20 71 18 109 -5z"/>
<path d="M11670 11102 c0 -10 43 -52 53 -52 14 0 7 27 -11 43 -20 18 -42 22
-42 9z"/>
<path d="M2517 11030 c-25 -20 -37 -50 -19 -50 14 0 54 48 50 60 -2 7 -13 4
-31 -10z"/>
<path d="M11750 11012 c0 -5 14 -21 30 -37 21 -20 30 -24 30 -14 0 9 -10 25
-23 37 -24 23 -37 28 -37 14z"/>
<path d="M11198 10889 c-108 -94 -138 -132 -138 -174 0 -41 31 -89 69 -104 26
-12 34 -11 56 3 27 18 34 46 11 46 -20 0 -38 27 -32 47 3 11 47 54 96 98 49
44 93 88 96 98 6 20 -30 67 -53 67 -7 0 -55 -36 -105 -81z"/>
<path d="M2432 10927 c-25 -27 -28 -37 -9 -37 16 0 47 32 47 48 0 19 -14 14
-38 -11z"/>
<path d="M11830 10916 c0 -8 9 -24 19 -37 16 -19 22 -21 32 -12 10 10 8 18
-11 38 -26 28 -40 32 -40 11z"/>
<path d="M2356 10838 c-17 -24 -21 -48 -8 -48 12 0 52 57 45 64 -11 11 -22 6
-37 -16z"/>
<path d="M11900 10829 c0 -19 47 -65 57 -55 4 3 -7 21 -25 39 -22 22 -32 27
-32 16z"/>
<path d="M11337 10682 c-75 -59 -139 -115 -143 -125 -6 -20 30 -67 52 -67 7 0
33 15 57 34 51 39 90 40 82 2 -3 -11 -11 -52 -20 -89 -8 -38 -15 -77 -15 -88
0 -24 34 -59 59 -59 15 0 22 18 42 116 l24 116 60 -5 c44 -4 64 -11 76 -26 30
-37 69 -20 69 31 0 25 -28 67 -47 69 -5 0 -54 6 -111 12 l-103 12 50 39 c37
28 51 45 51 63 0 30 -15 59 -33 66 -8 3 -73 -41 -150 -101z"/>
<path d="M2285 10740 c-20 -21 -26 -33 -18 -41 12 -12 53 33 53 57 0 19 -2 18
-35 -16z"/>
<path d="M2693 10728 c-57 -61 -183 -234 -183 -250 0 -10 12 -24 26 -30 25
-12 29 -10 63 30 l37 42 90 -68 c50 -38 103 -71 117 -74 73 -14 159 82 122
138 -17 26 -55 33 -55 10 0 -18 -27 -46 -44 -46 -14 0 -165 111 -166 121 0 3
16 26 35 50 40 51 42 60 17 82 -24 22 -34 21 -59 -5z"/>
<path d="M7158 10725 c-58 -21 -178 -94 -223 -136 -45 -41 -50 -51 -121 -234
-25 -66 -70 -163 -99 -215 -65 -119 -72 -138 -50 -147 24 -9 105 12 187 48 49
22 78 28 98 24 16 -4 103 -49 193 -101 91 -52 176 -94 189 -94 39 0 54 19 107
130 27 58 76 148 107 200 106 176 149 297 128 357 -12 35 -36 47 -242 123
-170 62 -209 69 -274 45z"/>
<path d="M11977 10733 c-7 -12 41 -69 50 -60 9 10 -17 59 -34 64 -6 2 -13 0
-16 -4z"/>
<path d="M2212 10641 c-15 -21 -18 -32 -10 -37 13 -8 48 30 48 52 0 22 -15 16
-38 -15z"/>
<path d="M12046 10632 c-3 -5 8 -22 24 -37 33 -31 42 -16 14 23 -16 23 -29 28
-38 14z"/>
<path d="M2146 10545 c-18 -27 -21 -45 -7 -45 10 0 41 45 41 60 0 18 -17 11
-34 -15z"/>
<path d="M12110 10532 c0 -16 32 -52 46 -52 18 0 18 10 -2 38 -14 21 -44 31
-44 14z"/>
<path d="M7617 10163 c-98 -174 -176 -322 -173 -329 3 -7 75 -47 161 -89 85
-42 155 -82 155 -89 0 -7 -25 -100 -56 -207 -50 -176 -64 -208 -87 -209 -28 0
-432 -52 -475 -61 -34 -7 -56 -17 -62 -30 -9 -17 -1 -25 72 -73 85 -55 413
-236 426 -236 9 1 321 493 498 785 70 116 139 224 155 242 52 60 103 156 102
193 -1 46 -38 143 -70 180 -16 20 -98 66 -235 135 -115 58 -215 105 -221 105
-7 0 -92 -143 -190 -317z"/>
<path d="M2076 10445 c-32 -49 -13 -63 22 -16 19 26 20 41 1 41 -3 0 -14 -11
-23 -25z"/>
<path d="M12180 10438 c0 -9 11 -30 25 -45 19 -22 24 -24 25 -11 0 9 -11 30
-25 45 -19 22 -24 24 -25 11z"/>
<path d="M2446 10397 c-31 -31 -33 -48 -6 -72 23 -21 12 -35 -27 -35 -32 0
-100 -64 -114 -107 -28 -86 8 -174 94 -231 34 -23 51 -27 111 -27 55 0 77 4
98 20 57 42 83 125 59 188 -9 24 -9 24 33 20 38 -5 45 -2 64 22 27 35 28 69 2
95 -23 23 -40 26 -40 7 0 -7 -5 -18 -12 -25 -18 -18 -89 27 -170 106 l-66 65
-26 -26z m110 -201 c39 -38 44 -48 44 -89 0 -38 -5 -49 -31 -71 -37 -31 -59
-32 -114 -6 -71 34 -96 110 -54 164 47 59 98 60 155 2z"/>
<path d="M11599 10370 c-116 -61 -149 -174 -85 -285 69 -117 207 -138 309 -46
47 42 67 84 67 141 0 74 -53 160 -122 196 -38 20 -126 17 -169 -6z m150 -84
c55 -29 68 -114 25 -165 -54 -64 -145 -63 -185 3 -31 51 -25 92 20 137 43 43
88 51 140 25z"/>
<path d="M2012 10341 c-15 -21 -18 -32 -11 -37 12 -7 48 32 49 54 0 20 -15 14
-38 -17z"/>
<path d="M12245 10341 c-8 -14 23 -63 40 -63 19 1 16 20 -8 48 -17 20 -26 24
-32 15z"/>
<path d="M1951 10244 c-22 -28 -24 -45 -6 -46 19 0 50 51 38 63 -7 7 -17 2
-32 -17z"/>
<path d="M12310 10235 c0 -14 32 -65 40 -65 15 0 12 17 -6 45 -15 23 -34 34
-34 20z"/>
<path d="M1891 10144 c-12 -15 -20 -32 -18 -38 7 -22 27 -16 42 15 23 43 5 60
-24 23z"/>
<path d="M12370 10126 c0 -18 37 -63 45 -54 8 8 -22 68 -35 68 -6 0 -10 -6
-10 -14z"/>
<path d="M12071 10111 c-8 -14 -7 -20 4 -25 22 -8 34 -47 23 -76 -14 -38 -47
-68 -68 -63 -17 5 -296 -22 -347 -33 -29 -6 -31 -46 -3 -74 24 -24 7 -24 164
0 71 11 131 18 133 16 3 -2 -31 -44 -75 -93 -77 -86 -102 -121 -102 -142 0
-16 37 -51 53 -51 19 0 314 361 333 406 18 44 11 84 -23 124 -29 36 -76 41
-92 11z"/>
<path d="M1824 10029 c-23 -44 -3 -60 25 -20 21 29 21 51 1 51 -5 0 -17 -14
-26 -31z"/>
<path d="M12425 10031 c-8 -14 23 -63 40 -63 19 1 16 20 -8 48 -17 20 -26 24
-32 15z"/>
<path d="M6870 10000 c-25 -12 -75 -25 -113 -29 -60 -6 -72 -12 -110 -47 -104
-97 -236 -225 -446 -434 l-226 -225 1 -95 c1 -120 11 -156 128 -427 131 -305
175 -393 273 -540 160 -239 207 -288 373 -387 109 -66 185 -135 201 -185 16
-48 5 -207 -25 -361 -23 -121 -24 -143 -29 -677 -3 -394 -7 -556 -16 -566 -12
-15 -25 -265 -41 -817 -5 -184 -12 -353 -15 -375 -3 -22 -10 -204 -15 -405 -6
-201 -13 -384 -16 -406 l-6 -42 85 -3 c67 -3 89 -8 107 -24 14 -13 32 -18 55
-16 25 2 56 -9 110 -37 76 -40 76 -40 116 -24 35 14 43 14 77 0 20 -9 64 -24
97 -33 33 -10 69 -21 80 -25 13 -5 32 0 55 15 106 66 123 73 160 59 51 -18 49
-18 136 34 88 54 80 54 164 -4 25 -17 52 -34 60 -38 24 -11 57 -31 72 -43 11
-10 25 -7 63 12 28 13 61 25 75 25 14 0 30 4 36 8 9 5 64 235 64 266 0 14 24
1 160 -89 80 -53 154 -95 167 -95 35 0 75 24 101 60 23 30 23 37 18 138 -4 59
-13 179 -21 267 -25 268 -44 492 -55 650 -6 83 -16 197 -21 255 -6 58 -15 159
-20 225 -4 66 -13 183 -19 260 -6 77 -13 172 -15 210 -3 39 -16 205 -30 370
-13 165 -33 417 -45 560 -11 143 -22 274 -25 291 -5 26 -16 37 -74 69 -38 20
-106 71 -152 112 -45 42 -97 82 -115 89 -19 8 -68 14 -116 14 l-83 0 3 -342
c3 -412 -6 -452 -60 -263 -21 74 -23 99 -23 338 0 310 8 291 -128 284 l-88 -5
37 23 c38 23 63 57 64 87 0 34 20 27 73 -27 60 -62 87 -68 167 -40 23 8 57 15
74 15 40 0 136 -57 235 -139 90 -75 114 -86 152 -70 49 20 188 241 313 498
l71 146 0 140 0 140 58 139 c61 148 62 166 9 166 -28 0 -52 -17 -203 -142
-187 -154 -234 -178 -292 -146 -24 12 -122 89 -231 180 -43 36 -85 62 -110 68
-23 6 -78 22 -124 36 -111 33 -136 30 -174 -22 -30 -42 -30 -42 -15 -90 8 -27
39 -103 68 -169 44 -101 53 -129 53 -180 0 -33 -5 -69 -11 -80 -14 -24 -11
-30 -51 120 -16 61 -51 175 -76 255 -26 80 -52 169 -56 199 -11 66 -30 88 -83
96 -53 9 -323 108 -402 148 -95 47 -173 104 -267 194 -47 46 -95 83 -105 83
-11 0 -42 -22 -69 -49 -33 -33 -64 -53 -93 -61 -74 -20 -93 1 -38 43 18 14 52
49 75 79 50 65 54 102 16 147 l-26 31 69 -34 c92 -46 160 -60 268 -56 129 5
220 5 301 0 85 -6 103 5 139 87 13 29 44 84 69 122 71 110 80 130 67 157 -7
15 -24 27 -53 34 -179 46 -270 88 -532 246 -158 97 -188 105 -256 74z"/>
<path d="M8406 9972 c-68 -22 -103 -62 -174 -195 -72 -136 -114 -203 -195
-312 -85 -115 -104 -150 -148 -280 -22 -64 -57 -151 -79 -194 -36 -74 -45
-103 -42 -143 1 -9 27 -28 65 -45 34 -16 84 -48 110 -71 42 -37 54 -42 95 -42
73 0 197 36 248 71 26 17 76 70 113 117 36 47 103 128 148 181 62 71 101 131
155 234 40 76 103 179 141 230 37 50 67 95 67 100 0 12 -272 294 -322 335 -48
37 -100 42 -182 14z"/>
<path d="M1776 9929 c-18 -37 -20 -49 -6 -49 16 0 43 61 32 72 -6 6 -15 -2
-26 -23z"/>
<path d="M2180 9924 c-50 -22 -79 -52 -106 -109 -39 -83 -28 -152 35 -218 31
-33 88 -67 300 -178 39 -21 57 -16 75 20 20 38 6 55 -76 97 l-71 36 39 22 c51
28 84 87 84 149 0 59 -18 95 -70 139 -65 56 -142 71 -210 42z m132 -100 c38
-20 58 -53 58 -97 0 -31 -7 -46 -34 -73 -38 -38 -69 -43 -122 -18 -73 35 -97
112 -53 168 37 47 85 54 151 20z"/>
<path d="M12485 9920 c-7 -11 34 -75 42 -66 7 6 -19 76 -28 76 -4 0 -11 -5
-14 -10z"/>
<path d="M1723 9826 c-25 -31 -28 -42 -14 -50 14 -9 43 31 39 56 -3 23 -3 23
-25 -6z"/>
<path d="M12540 9802 c0 -26 25 -56 38 -48 9 5 8 15 -3 37 -17 33 -35 38 -35
11z"/>
<path d="M1664 9704 c-12 -18 -14 -28 -6 -36 7 -7 15 -1 26 20 19 36 19 42 6
42 -5 0 -17 -11 -26 -26z"/>
<path d="M12595 9693 c9 -37 26 -56 38 -44 6 6 2 20 -12 40 -28 38 -35 39 -26
4z"/>
<path d="M12040 9635 c-56 -18 -118 -68 -136 -111 -42 -99 26 -223 121 -224
l30 -1 -22 -18 c-69 -58 -25 -162 57 -136 15 5 19 12 15 23 -4 10 -8 24 -9 32
-2 23 90 67 181 86 72 15 83 20 83 38 0 12 -7 32 -16 45 -14 19 -22 22 -51 16
l-34 -6 15 30 c21 40 20 87 -3 136 -22 48 -44 69 -94 90 -44 18 -77 18 -137 0z
m139 -112 c39 -37 47 -78 23 -123 -16 -28 -28 -37 -67 -47 -62 -16 -100 -7
-130 29 -43 51 -28 108 39 149 46 28 99 25 135 -8z"/>
<path d="M1615 9600 c-11 -21 -13 -36 -7 -42 6 -6 15 2 26 23 10 20 13 36 7
42 -6 6 -16 -3 -26 -23z"/>
<path d="M12644 9585 c10 -39 26 -59 39 -46 10 10 -3 41 -29 62 -16 13 -17 12
-10 -16z"/>
<path d="M12379 9584 c-26 -7 -52 -20 -58 -28 -32 -38 128 -65 162 -28 22 24
21 35 -1 55 -22 20 -42 20 -103 1z"/>
<path d="M8853 9446 c-27 -50 -72 -138 -100 -196 -28 -59 -74 -134 -104 -170
-30 -36 -77 -97 -106 -135 -56 -77 -152 -159 -247 -212 -33 -18 -69 -44 -79
-56 -18 -21 -18 -22 6 -42 14 -11 53 -36 88 -55 35 -19 92 -62 127 -95 88 -82
108 -82 233 5 58 40 147 88 238 127 81 35 156 70 168 78 32 21 109 133 143
209 39 85 60 174 60 256 l0 65 -139 103 c-77 57 -162 127 -189 156 l-50 53
-49 -91z"/>
<path d="M1564 9484 c-11 -16 -14 -28 -7 -35 12 -12 27 4 37 39 10 30 -9 28
-30 -4z"/>
<path d="M12686 9492 c-8 -13 6 -43 28 -62 14 -10 16 -9 16 8 0 27 -34 69 -44
54z"/>
<path d="M1916 9468 c-26 -36 -20 -64 17 -81 234 -110 258 -117 306 -93 56 29
80 115 43 149 -27 25 -52 22 -52 -6 0 -27 -17 -47 -39 -47 -9 0 -65 23 -125
50 -60 28 -114 50 -122 50 -7 0 -20 -10 -28 -22z"/>
<path d="M1533 9398 c-17 -21 -26 -58 -14 -58 18 0 45 50 34 61 -6 6 -13 5
-20 -3z"/>
<path d="M12735 9380 c-9 -14 25 -74 36 -63 6 6 3 22 -7 41 -17 35 -20 37 -29
22z"/>
<path d="M1853 9318 c-16 -20 -113 -277 -113 -299 0 -11 11 -24 25 -31 32 -14
48 -1 64 52 6 22 16 40 21 40 4 0 50 -16 100 -35 110 -42 161 -45 195 -11 54
54 50 148 -8 154 -22 3 -27 -1 -27 -18 0 -31 -18 -60 -38 -60 -24 0 -187 65
-185 73 1 4 10 32 20 63 17 54 17 57 -2 70 -23 17 -40 18 -52 2z"/>
<path d="M1475 9261 c-8 -17 -11 -32 -6 -35 11 -7 26 11 35 42 11 32 -11 27
-29 -7z"/>
<path d="M12775 9271 c-8 -13 23 -73 34 -67 5 3 6 17 4 30 -6 30 -28 52 -38
37z"/>
<path d="M1435 9154 c-9 -21 -12 -41 -7 -46 11 -11 27 9 36 44 10 42 -12 43
-29 2z"/>
<path d="M12247 9166 c-121 -33 -177 -131 -142 -251 43 -149 208 -198 325 -98
67 57 85 125 59 214 -33 107 -134 164 -242 135z m126 -106 c29 -23 47 -74 40
-113 -8 -44 -56 -79 -112 -85 -47 -4 -53 -2 -86 31 -39 39 -45 78 -20 127 30
59 127 80 178 40z"/>
<path d="M12820 9143 c0 -22 25 -61 34 -52 9 8 -9 62 -22 67 -7 2 -12 -5 -12
-15z"/>
<path d="M1395 9040 c-18 -34 -12 -58 10 -40 16 13 25 59 14 66 -4 2 -15 -9
-24 -26z"/>
<path d="M12856 9041 c-3 -5 2 -23 10 -41 19 -38 40 -27 25 12 -11 30 -27 43
-35 29z"/>
<path d="M1360 8931 c-13 -25 -13 -51 0 -51 12 0 30 33 30 54 0 22 -17 20 -30
-3z"/>
<path d="M12897 8934 c-8 -9 2 -54 16 -72 19 -24 28 4 12 41 -16 39 -18 41
-28 31z"/>
<path d="M1704 8905 c-34 -34 -29 -67 11 -75 17 -4 42 -13 57 -21 31 -16 137
-101 138 -110 0 -3 -55 -9 -122 -13 -145 -8 -171 -20 -176 -82 -3 -28 1 -42
14 -51 24 -18 54 -16 54 2 0 25 37 34 179 43 122 8 136 11 153 31 37 47 26 72
-77 168 -91 84 -162 133 -192 133 -8 0 -25 -11 -39 -25z"/>
<path d="M1325 8810 c-18 -34 -12 -58 10 -40 16 13 25 59 14 66 -4 2 -15 -9
-24 -26z"/>
<path d="M12930 8806 c0 -30 20 -70 31 -59 6 6 6 19 0 35 -12 31 -31 46 -31
24z"/>
<path d="M12503 8779 c-15 -6 -23 -17 -23 -33 0 -22 -8 -27 -87 -51 -47 -15
-97 -34 -110 -42 -35 -23 -53 -65 -53 -123 0 -82 39 -153 102 -186 64 -33 215
-4 281 56 36 32 42 84 12 106 -16 12 -24 9 -64 -20 -120 -87 -241 -74 -241 26
0 47 17 59 128 91 46 14 94 35 107 47 54 51 12 153 -52 129z"/>
<path d="M1303 8718 c-16 -20 -24 -66 -13 -73 12 -8 43 66 32 77 -5 5 -13 3
-19 -4z"/>
<path d="M12960 8686 c0 -8 5 -27 10 -42 14 -36 32 -18 22 21 -9 31 -32 47
-32 21z"/>
<path d="M1265 8585 c-3 -8 -7 -21 -9 -29 -6 -20 5 -28 21 -15 15 13 18 59 3
59 -6 0 -13 -7 -15 -15z"/>
<path d="M12990 8571 c0 -22 20 -62 29 -57 12 8 -2 59 -17 64 -7 2 -12 -1 -12
-7z"/>
<path d="M1240 8476 c-5 -15 -10 -34 -10 -42 0 -26 23 -10 32 21 10 39 -8 57
-22 21z"/>
<path d="M1690 8454 c-107 -18 -209 -36 -226 -39 -36 -6 -54 -37 -54 -94 l0
-39 208 -136 c115 -75 214 -136 220 -136 20 0 45 48 38 74 -3 14 -26 37 -56
56 -29 19 -50 39 -50 50 0 35 33 165 44 172 6 4 20 8 31 8 77 1 124 41 111 94
-8 33 -17 33 -266 -10z m13 -166 c-8 -35 -16 -64 -17 -66 -2 -1 -41 21 -86 50
-45 29 -78 53 -74 55 21 7 180 29 185 27 4 -2 0 -32 -8 -66z"/>
<path d="M13022 8434 c2 -15 9 -29 16 -32 10 -3 13 4 10 24 -2 15 -9 29 -16
32 -10 3 -13 -4 -10 -24z"/>
<path d="M1216 8369 c-10 -28 -11 -64 -1 -67 16 -5 30 57 17 70 -8 8 -13 8
-16 -3z"/>
<path d="M13044 8347 c-8 -21 10 -74 22 -67 12 7 9 59 -5 73 -7 7 -12 5 -17
-6z"/>
<path d="M1190 8236 c-5 -15 -10 -34 -10 -42 0 -26 23 -10 32 21 10 39 -8 57
-22 21z"/>
<path d="M13067 8233 c-7 -11 11 -74 21 -70 10 3 6 57 -6 69 -5 5 -12 6 -15 1z"/>
<path d="M1170 8114 c-12 -29 -6 -59 9 -50 12 8 20 66 9 72 -4 3 -13 -7 -18
-22z"/>
<path d="M13088 8115 c-10 -10 7 -68 21 -73 11 -4 13 3 7 29 -7 35 -18 53 -28
44z"/>
<path d="M1157 8013 c-10 -16 -12 -62 -3 -65 14 -5 30 52 18 64 -5 5 -12 6
-15 1z"/>
<path d="M13105 7987 c-7 -18 12 -70 23 -63 11 6 3 64 -9 72 -5 3 -12 -1 -14
-9z"/>
<path d="M1134 7875 c-7 -30 2 -59 16 -50 13 8 13 75 0 75 -5 0 -12 -11 -16
-25z"/>
<path d="M13122 7839 c2 -19 8 -33 13 -31 15 3 12 55 -3 60 -10 3 -13 -5 -10
-29z"/>
<path d="M1127 7773 c-10 -10 -8 -63 2 -63 9 0 21 33 21 58 0 13 -13 16 -23 5z"/>
<path d="M13134 7746 c-8 -21 -1 -49 14 -54 8 -2 12 7 12 27 0 33 -17 51 -26
27z"/>
<path d="M1108 7624 c-2 -19 0 -37 4 -40 11 -7 30 46 24 63 -10 24 -24 13 -28
-23z"/>
<path d="M13140 7628 c0 -26 12 -58 22 -58 14 0 5 63 -9 68 -7 2 -13 -2 -13
-10z"/>
<path d="M1107 7533 c-4 -3 -7 -19 -7 -35 0 -40 24 -31 28 10 3 30 -6 41 -21
25z"/>
<path d="M13152 7484 c2 -22 8 -38 13 -36 15 3 12 65 -3 70 -10 3 -13 -6 -10
-34z"/>
<path d="M1094 7406 c-8 -21 -1 -61 11 -61 6 0 11 17 13 38 3 37 -13 52 -24
23z"/>
<path d="M13160 7366 c0 -38 16 -57 26 -32 8 21 -3 66 -16 66 -6 0 -10 -15
-10 -34z"/>
<path d="M1092 7264 c2 -22 8 -38 13 -36 15 3 12 65 -3 70 -10 3 -13 -6 -10
-34z"/>
<path d="M13162 7244 c2 -22 8 -38 13 -36 15 3 12 65 -3 70 -10 3 -13 -6 -10
-34z"/>
<path d="M1090 7145 c0 -19 5 -35 10 -35 6 0 10 16 10 35 0 19 -4 35 -10 35
-5 0 -10 -16 -10 -35z"/>
<path d="M13164 7146 c-9 -23 0 -79 14 -84 8 -2 12 11 12 47 0 48 -14 68 -26
37z"/>
<path d="M1092 7024 c2 -22 8 -38 13 -36 15 3 12 65 -3 70 -10 3 -13 -6 -10
-34z"/>
<path d="M13167 7013 c-4 -3 -7 -22 -7 -40 0 -42 23 -41 28 1 4 29 -9 52 -21
39z"/>
<path d="M1092 6904 c2 -22 8 -38 13 -36 15 3 12 65 -3 70 -10 3 -13 -6 -10
-34z"/>
<path d="M13166 6893 c-9 -10 -7 -73 3 -73 5 0 11 16 13 36 4 34 -3 50 -16 37z"/>
<path d="M1100 6784 c0 -21 4 -34 11 -32 6 2 10 7 10 11 -1 4 -1 18 -1 32 0
14 -4 25 -10 25 -5 0 -10 -16 -10 -36z"/>
<path d="M13157 6773 c-4 -3 -7 -22 -7 -40 0 -42 23 -41 28 1 4 29 -9 52 -21
39z"/>
<path d="M1105 6690 c-8 -12 5 -60 16 -60 5 0 9 16 9 35 0 33 -12 46 -25 25z"/>
<path d="M13147 6653 c-4 -3 -7 -22 -7 -40 0 -42 23 -41 28 1 4 29 -9 52 -21
39z"/>
<path d="M1115 6581 c-10 -17 5 -73 18 -68 13 4 11 57 -3 70 -4 5 -11 4 -15
-2z"/>
<path d="M13136 6533 c-9 -10 -7 -73 3 -73 18 0 29 64 12 74 -4 3 -11 3 -15
-1z"/>
<path d="M1129 6453 c-3 -20 4 -59 11 -66 13 -14 22 11 15 43 -6 27 -23 42
-26 23z"/>
<path d="M13127 6413 c-10 -16 -12 -62 -3 -65 14 -5 30 52 18 64 -5 5 -12 6
-15 1z"/>
<path d="M1144 6336 c-8 -22 -1 -59 14 -64 8 -2 12 8 12 32 0 37 -16 57 -26
32z"/>
<path d="M13107 6283 c-4 -3 -7 -17 -7 -30 0 -33 24 -24 28 10 3 26 -7 35 -21
20z"/>
<path d="M1162 6189 c2 -18 9 -34 16 -37 10 -3 13 5 10 29 -2 18 -9 34 -16 37
-10 3 -13 -5 -10 -29z"/>
<path d="M13084 6156 c-8 -20 -1 -47 11 -49 6 -1 11 13 13 31 3 32 -14 45 -24
18z"/>
<path d="M1178 6105 c-9 -9 6 -66 17 -65 6 1 9 13 8 27 -2 27 -15 47 -25 38z"/>
<path d="M13066 6044 c-10 -27 -7 -56 7 -52 14 5 23 68 9 68 -6 0 -13 -7 -16
-16z"/>
<path d="M1202 5954 c2 -15 9 -29 16 -32 10 -3 13 4 10 24 -2 15 -9 29 -16 32
-10 3 -13 -4 -10 -24z"/>
<path d="M13047 5933 c-12 -21 -16 -63 -7 -68 10 -6 30 34 30 61 0 15 -16 19
-23 7z"/>
<path d="M1224 5867 c-8 -21 10 -74 22 -67 12 7 9 59 -5 73 -7 7 -12 5 -17 -6z"/>
<path d="M13020 5806 c-13 -34 -13 -46 0 -46 16 0 33 51 21 63 -7 7 -14 1 -21
-17z"/>
<path d="M1250 5736 c0 -8 5 -27 10 -42 14 -36 32 -18 22 21 -9 31 -32 47 -32
21z"/>
<path d="M12990 5685 c-11 -30 -6 -60 9 -51 14 9 23 58 12 69 -7 7 -14 1 -21
-18z"/>
<path d="M1278 5634 c-9 -8 3 -53 17 -64 19 -15 27 3 16 33 -10 26 -25 40 -33
31z"/>
<path d="M12960 5575 c-12 -32 -10 -61 5 -58 16 3 30 62 17 75 -8 8 -14 4 -22
-17z"/>
<path d="M1310 5506 c0 -8 5 -27 10 -42 14 -36 32 -18 22 21 -9 31 -32 47 -32
21z"/>
<path d="M12930 5456 c-13 -34 -13 -46 0 -46 16 0 33 51 21 63 -7 7 -14 1 -21
-17z"/>
<path d="M1340 5387 c0 -19 27 -53 36 -45 9 10 -12 58 -26 58 -5 0 -10 -6 -10
-13z"/>
<path d="M12904 5359 c-17 -21 -25 -67 -14 -74 12 -8 32 41 28 68 -3 17 -5 18
-14 6z"/>
<path d="M1376 5292 c-8 -14 23 -84 34 -77 6 4 7 18 4 33 -8 33 -29 58 -38 44z"/>
<path d="M12856 5220 c-16 -33 -13 -56 5 -44 17 10 31 56 21 66 -6 6 -16 -3
-26 -22z"/>
<path d="M1417 5173 c-2 -5 2 -23 10 -42 10 -23 17 -31 24 -24 7 7 6 21 -5 42
-17 32 -22 36 -29 24z"/>
<path d="M12815 5104 c-9 -21 -12 -41 -7 -46 11 -11 27 9 36 44 10 42 -12 43
-29 2z"/>
<path d="M1455 5060 c-9 -14 25 -74 36 -63 6 6 3 22 -7 41 -17 35 -20 37 -29
22z"/>
<path d="M12772 4988 c-17 -45 3 -61 21 -17 14 33 13 49 -1 49 -4 0 -13 -14
-20 -32z"/>
<path d="M1495 4951 c-8 -13 23 -73 34 -67 5 3 6 17 4 30 -6 30 -28 52 -38 37z"/>
<path d="M12736 4888 c-10 -15 -16 -35 -14 -45 3 -15 6 -14 22 9 10 15 16 35
14 45 -3 15 -6 14 -22 -9z"/>
<path d="M1546 4813 c8 -35 19 -47 33 -39 8 5 6 16 -4 37 -20 37 -38 38 -29 2z"/>
<path d="M12685 4770 c-11 -22 -13 -36 -7 -42 7 -7 16 0 27 22 11 22 13 36 7
42 -7 7 -16 0 -27 -22z"/>
<path d="M1590 4722 c0 -28 17 -62 30 -62 17 0 11 37 -10 61 l-19 24 -1 -23z"/>
<path d="M12634 4654 c-12 -18 -14 -28 -6 -36 7 -7 15 -1 26 20 19 36 19 42 6
42 -5 0 -17 -11 -26 -26z"/>
<path d="M1636 4622 c-8 -13 20 -72 34 -72 16 0 11 36 -8 61 -13 15 -21 18
-26 11z"/>
<path d="M12584 4544 c-12 -18 -14 -28 -6 -36 7 -7 15 -1 26 20 19 36 19 42 6
42 -5 0 -17 -11 -26 -26z"/>
<path d="M1690 4498 c0 -28 34 -66 44 -49 8 12 -6 42 -28 61 -14 11 -16 9 -16
-12z"/>
<path d="M12536 4442 c-21 -41 -21 -59 0 -42 25 21 37 51 26 62 -7 7 -16 0
-26 -20z"/>
<path d="M1740 4400 c0 -19 28 -60 41 -60 16 0 10 18 -16 47 -16 19 -24 23
-25 13z"/>
<path d="M12475 4331 c-11 -22 -12 -32 -3 -37 13 -8 38 22 38 48 0 27 -18 22
-35 -11z"/>
<path d="M1797 4294 c-8 -8 21 -64 33 -64 18 0 20 20 4 45 -17 25 -26 30 -37
19z"/>
<path d="M12421 4234 c-22 -28 -24 -45 -6 -46 19 0 50 51 38 63 -7 7 -17 2
-32 -17z"/>
<path d="M1855 4190 c-7 -11 8 -41 29 -60 21 -17 21 1 1 40 -17 33 -21 35 -30
20z"/>
<path d="M12366 4122 c-18 -36 -19 -42 -7 -42 16 0 44 51 33 62 -7 7 -15 0
-26 -20z"/>
<path d="M1910 4085 c0 -14 32 -65 40 -65 15 0 12 23 -6 48 -14 20 -34 30 -34
17z"/>
<path d="M12301 4024 c-22 -28 -24 -45 -6 -46 19 0 50 51 38 63 -7 7 -17 2
-32 -17z"/>
<path d="M1975 3980 c-6 -11 23 -60 36 -60 17 0 19 21 3 45 -17 27 -29 31 -39
15z"/>
<path d="M12241 3924 c-34 -44 -26 -64 11 -26 23 23 29 35 21 43 -7 7 -16 3
-32 -17z"/>
<path d="M2040 3878 c1 -20 37 -64 46 -55 9 9 -19 60 -35 65 -6 2 -11 -2 -11
-10z"/>
<path d="M12170 3815 c-19 -20 -21 -28 -11 -38 10 -9 16 -7 31 13 37 48 20 68
-20 25z"/>
<path d="M2105 3779 c-4 -6 3 -21 16 -35 30 -32 48 -16 23 20 -21 28 -29 31
-39 15z"/>
<path d="M12106 3718 c-26 -37 -20 -55 9 -28 25 24 33 50 16 50 -6 0 -17 -10
-25 -22z"/>
<path d="M2170 3678 c0 -7 9 -24 20 -38 15 -20 21 -22 31 -13 10 10 8 18 -11
38 -26 27 -40 32 -40 13z"/>
<path d="M12041 3624 c-34 -44 -26 -64 11 -26 23 23 29 35 21 43 -7 7 -16 3
-32 -17z"/>
<path d="M2240 3577 c0 -8 11 -24 24 -36 32 -30 46 -8 15 25 -25 27 -39 31
-39 11z"/>
<path d="M11972 3527 c-23 -24 -29 -47 -12 -47 13 0 43 47 38 60 -2 6 -13 1
-26 -13z"/>
<path d="M2310 3489 c0 -19 47 -65 57 -55 4 3 -7 21 -25 39 -22 22 -32 27 -32
16z"/>
<path d="M11890 3425 c-19 -20 -21 -28 -11 -38 10 -9 16 -7 31 13 37 48 20 68
-20 25z"/>
<path d="M2386 3392 c-3 -5 8 -22 24 -37 33 -31 42 -16 14 23 -16 23 -29 28
-38 14z"/>
<path d="M11822 3337 c-22 -24 -29 -47 -14 -47 12 0 52 44 52 58 0 18 -14 14
-38 -11z"/>
<path d="M2460 3297 c0 -14 41 -57 53 -57 15 0 6 28 -16 48 -27 25 -37 28 -37
9z"/>
<path d="M11742 3237 c-25 -27 -28 -37 -9 -37 16 0 47 32 47 48 0 19 -14 14
-38 -11z"/>
<path d="M2540 3207 c0 -17 44 -59 53 -51 7 7 -33 64 -45 64 -4 0 -8 -6 -8
-13z"/>
<path d="M11662 3147 c-25 -27 -28 -37 -9 -37 16 0 47 32 47 48 0 19 -14 14
-38 -11z"/>
<path d="M2620 3119 c0 -20 46 -63 54 -51 3 5 -8 22 -24 37 -21 20 -30 24 -30
14z"/>
<path d="M11582 3057 c-25 -27 -28 -37 -9 -37 16 0 47 32 47 48 0 19 -14 14
-38 -11z"/>
<path d="M2700 3027 c0 -14 41 -57 53 -57 15 0 6 28 -16 48 -27 25 -37 28 -37
9z"/>
<path d="M11497 2972 c-18 -20 -22 -42 -9 -42 10 0 52 43 52 53 0 14 -27 7
-43 -11z"/>
<path d="M2780 2942 c0 -14 49 -56 57 -49 3 4 -4 18 -17 32 -24 25 -40 32 -40
17z"/>
<path d="M11417 2892 c-18 -20 -22 -42 -9 -42 10 0 52 43 52 53 0 14 -27 7
-43 -11z"/>
<path d="M2860 2852 c0 -10 43 -52 53 -52 14 0 7 27 -11 43 -20 18 -42 22 -42
9z"/>
<path d="M11327 2802 c-18 -20 -22 -42 -9 -42 10 0 52 43 52 53 0 14 -27 7
-43 -11z"/>
<path d="M2950 2767 c0 -16 32 -47 48 -47 18 0 14 25 -6 43 -22 20 -42 22 -42
4z"/>
<path d="M11242 2717 c-25 -27 -28 -37 -9 -37 14 0 57 41 57 53 0 15 -28 6
-48 -16z"/>
<path d="M3040 2687 c0 -16 32 -47 48 -47 19 0 14 14 -11 38 -27 25 -37 28
-37 9z"/>
<path d="M11155 2630 c-20 -21 -24 -30 -14 -30 15 0 59 40 59 53 0 15 -17 6
-45 -23z"/>
<path d="M3132 2598 c18 -27 45 -45 54 -35 10 9 -35 57 -54 57 -13 0 -13 -3 0
-22z"/>
<path d="M11065 2550 c-20 -21 -24 -30 -14 -30 15 0 59 40 59 53 0 15 -17 6
-45 -23z"/>
<path d="M3222 2518 c18 -27 45 -45 54 -35 10 9 -35 57 -54 57 -13 0 -13 -3 0
-22z"/>
<path d="M10972 2484 c-24 -17 -30 -44 -9 -44 14 0 57 41 57 53 0 12 -25 8
-48 -9z"/>
<path d="M3310 2449 c0 -11 40 -48 53 -49 14 0 7 27 -11 43 -21 19 -42 22 -42
6z"/>
<path d="M10882 2407 c-25 -27 -28 -37 -9 -37 19 0 59 39 52 51 -9 14 -20 11
-43 -14z"/>
<path d="M3402 2373 c4 -20 53 -51 64 -40 10 9 -35 57 -53 57 -8 0 -13 -8 -11
-17z"/>
<path d="M10781 2326 c-16 -16 -19 -26 -11 -31 11 -7 60 31 60 47 0 16 -27 7
-49 -16z"/>
<path d="M3496 2296 c5 -13 46 -36 64 -36 17 0 -1 27 -26 39 -33 15 -45 14
-38 -3z"/>
<path d="M10689 2261 c-19 -15 -21 -22 -12 -32 14 -14 36 0 54 33 13 25 -11
24 -42 -1z"/>
<path d="M3592 2229 c6 -17 56 -44 65 -35 10 9 -33 46 -54 46 -8 0 -13 -5 -11
-11z"/>
<path d="M10589 2191 c-19 -16 -21 -22 -12 -32 10 -10 18 -8 38 11 14 13 25
27 25 32 0 14 -27 9 -51 -11z"/>
<path d="M3692 2159 c5 -16 56 -44 65 -35 9 9 -35 45 -55 46 -8 0 -12 -5 -10
-11z"/>
<path d="M10490 2120 c-14 -10 -21 -22 -17 -26 9 -9 60 19 65 35 6 17 -21 12
-48 -9z"/>
<path d="M3794 2099 c-7 -12 32 -48 54 -49 19 0 15 14 -11 38 -27 25 -33 27
-43 11z"/>
<path d="M10390 2055 c-13 -14 -20 -28 -16 -32 9 -10 61 23 61 38 0 22 -21 20
-45 -6z"/>
<path d="M3892 2029 c5 -16 56 -44 65 -35 9 9 -35 45 -55 46 -8 0 -12 -5 -10
-11z"/>
<path d="M10290 1990 c-14 -10 -21 -22 -17 -26 9 -9 60 19 65 35 6 17 -21 12
-48 -9z"/>
<path d="M3996 1972 c-7 -11 5 -27 33 -41 36 -20 48 2 15 28 -29 23 -40 26
-48 13z"/>
<path d="M10183 1925 c-15 -13 -22 -25 -15 -25 22 0 73 30 67 40 -10 15 -22
12 -52 -15z"/>
<path d="M4095 1911 c-5 -9 40 -51 56 -51 27 0 16 31 -18 49 -26 13 -30 14
-38 2z"/>
<path d="M10093 1878 c-25 -12 -39 -38 -20 -38 18 0 68 36 60 43 -8 9 -13 8
-40 -5z"/>
<path d="M4207 1853 c-13 -12 -7 -23 24 -39 44 -22 60 -3 21 25 -33 23 -36 24
-45 14z"/>
<path d="M9975 1805 c-16 -13 -24 -24 -17 -25 19 0 72 29 72 40 0 17 -24 11
-55 -15z"/>
<path d="M4307 1793 c-7 -7 46 -43 63 -43 20 0 9 20 -20 35 -33 17 -34 17 -43
8z"/>
<path d="M9878 1764 c-29 -15 -35 -28 -18 -39 13 -8 72 34 65 46 -8 12 -15 11
-47 -7z"/>
<path d="M4416 1726 c3 -7 17 -19 31 -25 36 -16 52 1 22 23 -29 20 -60 21 -53
2z"/>
<path d="M9766 1704 c-18 -10 -25 -19 -19 -25 12 -12 60 8 67 27 7 18 -12 17
-48 -2z"/>
<path d="M4520 1680 c0 -16 61 -43 72 -32 7 7 0 16 -20 26 -35 18 -52 20 -52
6z"/>
<path d="M9657 1650 c-16 -10 -24 -20 -19 -24 14 -9 74 14 69 27 -5 17 -20 17
-50 -3z"/>
<path d="M4635 1630 c-8 -14 55 -44 67 -32 7 7 0 16 -20 26 -36 19 -39 19 -47
6z"/>
<path d="M9551 1604 c-23 -9 -31 -18 -25 -24 14 -14 74 8 74 26 0 17 -6 17
-49 -2z"/>
<path d="M4740 1581 c0 -16 61 -44 72 -33 11 11 -8 28 -45 37 -17 5 -27 3 -27
-4z"/>
<path d="M9431 1554 c-34 -24 -12 -40 28 -20 17 9 31 21 31 26 0 15 -33 12
-59 -6z"/>
<path d="M4856 1541 c-10 -16 47 -47 66 -35 5 3 -4 15 -21 25 -36 22 -38 22
-45 10z"/>
<path d="M9331 1514 c-22 -9 -31 -18 -25 -24 14 -14 68 4 72 23 4 20 -3 21
-47 1z"/>
<path d="M4970 1492 c0 -16 51 -45 61 -35 6 6 5 14 -3 20 -20 16 -58 26 -58
15z"/>
<path d="M9212 1467 c-12 -7 -19 -16 -16 -20 12 -12 31 -8 55 13 23 18 23 19
4 19 -11 0 -30 -5 -43 -12z"/>
<path d="M5075 1450 c-8 -12 66 -43 77 -32 5 5 3 13 -4 19 -20 16 -66 24 -73
13z"/>
<path d="M9095 1427 c-13 -10 -15 -16 -6 -21 15 -10 73 13 65 25 -8 13 -38 11
-59 -4z"/>
<path d="M5194 1408 c-7 -11 -8 -10 29 -26 33 -14 54 -7 37 13 -14 16 -59 25
-66 13z"/>
<path d="M8982 1389 c-13 -5 -20 -13 -17 -19 8 -13 55 -2 75 16 12 12 11 14
-10 13 -14 0 -35 -4 -48 -10z"/>
<path d="M5310 1370 c0 -15 40 -32 58 -25 15 6 15 8 -2 21 -23 16 -56 19 -56
4z"/>
<path d="M8884 1360 c-23 -9 -39 -28 -31 -36 9 -9 79 25 72 36 -7 12 -13 12
-41 0z"/>
<path d="M5424 1338 c-7 -11 -8 -10 29 -26 33 -14 54 -7 37 13 -14 16 -59 25
-66 13z"/>
<path d="M8751 1319 c-15 -6 -21 -13 -15 -19 12 -12 87 7 79 21 -8 11 -33 11
-64 -2z"/>
<path d="M5540 1296 c20 -18 67 -29 75 -16 7 11 -35 30 -68 30 -18 0 -19 -2
-7 -14z"/>
<path d="M8634 1286 c-10 -8 -16 -17 -13 -20 9 -9 80 14 74 25 -9 13 -38 11
-61 -5z"/>
<path d="M5662 1268 c5 -15 56 -29 64 -17 3 5 -7 14 -21 19 -35 13 -48 13 -43
-2z"/>
<path d="M8521 1259 c-16 -6 -21 -13 -15 -19 12 -12 74 6 74 21 0 11 -28 11
-59 -2z"/>
<path d="M5765 1250 c-6 -10 34 -30 61 -30 15 0 19 16 7 23 -21 12 -63 16 -68
7z"/>
<path d="M8412 1239 c-38 -11 -34 -29 7 -29 29 0 57 21 44 33 -7 8 -8 8 -51
-4z"/>
<path d="M5885 1220 c-6 -10 1 -14 47 -24 36 -8 46 11 13 24 -33 13 -52 13
-60 0z"/>
<path d="M8281 1209 c-15 -6 -21 -13 -15 -19 11 -11 74 1 77 15 3 14 -33 16
-62 4z"/>
<path d="M6004 1198 c-7 -11 45 -30 63 -23 8 2 12 9 9 14 -8 12 -66 20 -72 9z"/>
<path d="M8173 1190 c-26 -10 -31 -30 -9 -30 24 0 66 19 66 30 0 12 -27 12
-57 0z"/>
<path d="M6124 1178 c-7 -11 45 -30 63 -23 8 2 12 9 9 14 -8 12 -66 20 -72 9z"/>
<path d="M8053 1170 c-33 -13 -29 -32 5 -24 45 10 52 13 52 24 0 12 -27 12
-57 0z"/>
<path d="M6240 1160 c0 -14 50 -32 68 -25 21 8 4 21 -35 28 -20 4 -33 2 -33
-3z"/>
<path d="M7923 1154 c-28 -12 -10 -25 30 -22 23 2 42 8 42 13 0 11 -52 17 -72
9z"/>
<path d="M6362 1138 c3 -7 19 -14 37 -16 24 -3 32 0 29 10 -3 7 -19 14 -37 16
-24 3 -32 0 -29 -10z"/>
<path d="M7826 1141 c-16 -3 -31 -12 -34 -20 -4 -11 3 -12 34 -6 21 4 42 9 47
12 8 5 -1 24 -11 22 -4 -1 -20 -4 -36 -8z"/>
<path d="M6482 1130 c5 -17 56 -32 64 -18 8 13 3 17 -36 24 -25 5 -32 4 -28
-6z"/>
<path d="M6604 1118 c-8 -13 0 -19 31 -21 15 -1 30 3 32 9 5 14 -55 25 -63 12z"/>
<path d="M7677 1124 c-11 -12 3 -24 28 -24 32 0 56 10 49 21 -6 10 -67 12 -77
3z"/>
<path d="M6727 1113 c-15 -15 -5 -23 28 -23 39 0 47 14 13 24 -29 7 -33 7 -41
-1z"/>
<path d="M7555 1110 c-3 -5 0 -13 9 -16 21 -8 71 -1 71 11 0 14 -72 19 -80 5z"/>
<path d="M6835 1100 c-3 -5 0 -13 9 -16 21 -8 71 -1 71 11 0 14 -72 19 -80 5z"/>
<path d="M7317 1104 c-13 -13 5 -24 39 -24 24 0 34 4 32 13 -5 13 -60 22 -71
11z"/>
<path d="M7443 1098 c2 -7 16 -13 32 -13 16 0 30 6 33 13 2 8 -8 12 -33 12
-25 0 -35 -4 -32 -12z"/>
<path d="M6960 1090 c0 -5 16 -10 35 -10 19 0 35 5 35 10 0 6 -16 10 -35 10
-19 0 -35 -4 -35 -10z"/>
<path d="M7080 1090 c0 -5 16 -10 35 -10 19 0 35 5 35 10 0 6 -16 10 -35 10
-19 0 -35 -4 -35 -10z"/>
<path d="M7200 1090 c0 -5 16 -10 35 -10 19 0 35 5 35 10 0 6 -16 10 -35 10
-19 0 -35 -4 -35 -10z"/>
</g>
</svg>
